<svg xmlns="http://www.w3.org/2000/svg" height="2048" preserveAspectRatio="none" style="display: block;" version="1.1" viewBox="0 0 2048 2048" width="2048">
<path d="M 0 0 L 2048 0 L 2048 2048 L 0 2048 L 0 0 z" fill="rgb(251,251,251)" transform="translate(0,0)"></path>
<path d="M 174.199 787.327 C 255.658 784.848 335.432 845.138 313.087 934.75 C 302.34 977.85 264.61 1000.6 222.732 1008.78 C 303.526 1029.47 339.418 1112.52 304.129 1187.25 C 302.909 1189.62 301.584 1191.93 300.157 1194.18 C 280.049 1226.15 251.431 1247.51 214.412 1256.53 C 197.602 1260.62 171.633 1264.3 157.243 1253.86 C 149.54 1248.27 141.62 1239.08 140.822 1229.46 C 139.506 1213.57 140.053 1195.19 140.062 1179.11 L 140.051 1075.79 L 140.18 909.517 C 140.14 879.671 139.66 849.583 140.543 819.781 C 141.063 802.208 158.1 789.979 174.199 787.327 z" fill="rgb(71,3,250)" transform="translate(0,0)"></path>
<path d="M 432.999 1155.19 C 446.647 1099.16 433.487 1053.31 379.143 1027.04 C 364.016 1019.73 344.931 1017.18 345.573 996.918 C 345.263 983.108 345.367 969.45 345.424 955.66 L 345.424 889.13 C 345.463 876.678 345.12 863.752 345.367 851.386 C 345.573 841.098 344.154 824.195 346.519 814.635 C 355.017 780.288 395.67 785.042 421.76 792.419 C 453.935 801.402 481.183 822.877 497.438 852.061 C 512.023 877.958 515.488 908.662 507.042 937.158 C 497.498 969.125 477.399 988.317 450.045 1005.33 C 485.271 1026.74 510.93 1054.82 520.971 1095.78 C 529.388 1128.71 523.88 1163.66 505.739 1192.41 C 481.269 1232.06 414.77 1277.1 363.31 1255.39 C 356.377 1252.46 347.808 1239.83 346.27 1232.49 C 344.384 1217.83 345.032 1202.74 345.083 1187.9 C 345.172 1161.93 344.994 1136.28 345.443 1110.26 C 345.688 1094.41 352.319 1084.61 368.796 1082.23 C 382.878 1080.19 396.073 1086.65 406.95 1094.97 C 423.441 1107.58 433.471 1135.53 430.611 1155.91 L 432.999 1155.19 z" fill="rgb(71,3,250)" transform="translate(0,0)"></path>
<path d="M 432.999 1155.19 C 432.614 1156.42 431.575 1160.5 430.483 1161.27 C 429.377 1161.01 430.484 1156.54 430.611 1155.91 L 432.999 1155.19 z" fill="rgb(164,139,223)" transform="translate(0,0)"></path>
<path d="M 622.668 952.951 C 649.75 952.86 676.978 952.3 704.027 953.32 C 749.533 955.037 773.082 1001.1 732.755 1031.71 C 760.741 1044.64 768.666 1064.58 757.422 1093.42 C 736.657 1122.57 704.875 1118.05 673.262 1117.96 L 622.455 1117.81 L 622.668 952.951 z" fill="rgb(26,27,79)" transform="translate(0,0)"></path>
<path d="M 647.478 1044.56 C 668.884 1045.03 693.993 1043.4 714.991 1046.16 C 735.238 1048.82 744.079 1074.03 728.679 1089.61 C 710.27 1100.98 669.788 1096.99 647.192 1096.82 C 647.134 1079.4 647.23 1061.98 647.478 1044.56 z" fill="rgb(251,251,251)" transform="translate(0,0)"></path>
<path d="M 647.487 972.919 C 665.948 973.073 684.611 972.277 702.998 973.347 C 726.482 974.713 736.139 998.768 719.835 1015.98 C 704.235 1026.84 668.339 1023.2 647.374 1023.41 C 647.337 1007.02 646.981 989.223 647.487 972.919 z" fill="rgb(251,251,251)" transform="translate(0,0)"></path>
<path d="M 993.032 992.337 C 995.962 992.084 998.904 992.007 1001.84 992.108 C 1020.67 992.609 1030.93 997.855 1043.5 1011.13 L 1043.46 994.199 L 1066.42 994.135 C 1067.09 1024.14 1065.9 1055.66 1066.86 1085.56 C 1068.14 1125.36 1060.54 1155.75 1014.47 1161.19 C 987.961 1164.32 966.423 1157.26 945.638 1140.61 L 956.892 1125.43 C 958.6 1126.21 966.879 1131.4 969.43 1132.84 C 979.267 1138.2 991.69 1140.75 1002.92 1140.75 C 1040.02 1140.75 1044.63 1120.53 1044.17 1090.16 C 1035.42 1100.23 1026.76 1106.84 1012.64 1109.15 C 955.185 1118.53 919.119 1061.39 951.565 1014.05 C 960.587 1000.88 977.078 994.347 993.032 992.337 z" fill="rgb(26,27,79)" transform="translate(0,0)"></path>
<path d="M 994.867 1014.2 C 1053.17 1008.48 1061.12 1073.76 1012.95 1087.48 C 984.022 1090.94 960.314 1077.45 963.383 1045 C 965.094 1026.92 977.842 1017.72 994.867 1014.2 z" fill="rgb(251,251,251)" transform="translate(0,0)"></path>
<path d="M 1885.23 944.2 L 1899.18 944.149 C 1901.18 1000.9 1898.46 1060.45 1899.63 1117.65 L 1885.86 1117.71 L 1885.84 1093.78 C 1864.15 1123.21 1831.71 1125.92 1801.42 1108.31 C 1783.28 1094.74 1774.24 1075.88 1775.36 1053.11 C 1776.11 1036.42 1783.65 1020.77 1796.24 1009.78 C 1808.92 998.511 1825.62 992.856 1842.54 994.11 C 1860.98 995.485 1873.33 1003.5 1885.2 1017.15 C 1885.62 993.222 1885.25 968.213 1885.23 944.2 z" fill="rgb(26,27,79)" transform="translate(0,0)"></path>
<path d="M 1830.93 1007.81 C 1848.56 1005.31 1866.17 1012.5 1877.02 1026.63 C 1887.87 1040.75 1890.28 1059.62 1883.32 1076.01 C 1876.37 1092.41 1861.12 1103.79 1843.43 1105.8 C 1816.59 1108.85 1792.27 1089.77 1788.86 1062.97 C 1785.44 1036.17 1804.18 1011.6 1830.93 1007.81 z" fill="rgb(251,251,251)" transform="translate(0,0)"></path>
<path d="M 1107.88 944.801 L 1130.79 944.734 L 1130.98 1011.23 C 1132.3 1009.63 1133.68 1008.06 1135.1 1006.54 C 1160.57 979.531 1215.38 990.513 1221.66 1029.39 C 1226.1 1056.83 1224.18 1089.57 1224.09 1117.8 L 1201.19 1117.8 L 1201.18 1053.75 C 1201.24 1042.52 1201.05 1033.61 1193.35 1024.52 C 1180.88 1009.79 1154.94 1009.57 1141.27 1022.62 C 1131.3 1032.14 1130.62 1045.19 1130.67 1058 C 1130.76 1077.96 1130.83 1097.86 1130.92 1117.8 L 1108.06 1117.81 L 1107.88 944.801 z" fill="rgb(26,27,79)" transform="translate(0,0)"></path>
<path d="M 1356.7 952.794 L 1368.13 952.728 C 1391.82 994.421 1415.87 1035.91 1440.28 1077.19 C 1448.71 1062.3 1508.29 956.671 1513.54 953.412 C 1516.64 953.275 1520.54 952.683 1523.14 954.058 C 1524.46 964.288 1523.64 996.913 1523.61 1008.5 L 1523.45 1117.87 L 1508.95 1117.94 L 1508.87 1014.14 L 1508.74 983.409 L 1466.62 1055.42 C 1459.92 1066.91 1450.75 1083.87 1443.36 1094.05 C 1441.04 1095.31 1439.9 1094.72 1437.2 1094.27 C 1431.57 1089.02 1415.91 1060.2 1410.89 1051.57 L 1370.77 983.254 L 1370.6 1117.76 L 1356.6 1117.82 L 1356.7 952.794 z" fill="rgb(26,27,79)" transform="translate(0,0)"></path>
<path d="M 1266.74 969.068 L 1288.69 969.132 L 1288.71 995.184 L 1322.03 995.04 L 1322.06 1012.29 L 1288.49 1012.37 C 1288.62 1028.92 1288.64 1045.48 1288.55 1062.04 C 1288.53 1070.89 1287.94 1080.98 1289.06 1089.68 C 1291.44 1108.3 1305.51 1100.3 1317.4 1099.6 C 1320.42 1101.78 1320.23 1103.23 1322.01 1107.27 C 1323.49 1110.73 1323.93 1110.16 1323.25 1113.19 C 1312.42 1121.21 1290.42 1121.94 1279.39 1114.08 C 1263.57 1102.8 1266.66 1076.86 1266.66 1059.47 C 1266.73 1043.84 1266.63 1028.2 1266.34 1012.57 L 1245.89 1012.67 L 1245.62 995.011 L 1266.69 994.985 L 1266.74 969.068 z" fill="rgb(26,27,79)" transform="translate(0,0)"></path>
<path d="M 1682.78 994.281 C 1684.68 994.111 1686.59 994.013 1688.51 993.988 C 1703.66 993.742 1718.59 997.713 1729.48 1008.89 C 1747.18 1027.08 1744.72 1053.83 1744.65 1077.27 L 1744.61 1117.81 L 1730.59 1117.71 C 1730.67 1094.07 1731.89 1064.29 1729.78 1040.87 C 1727.27 1012.97 1700.52 1004.39 1675.02 1008.52 C 1642.61 1019.83 1644.39 1045.61 1644.79 1074.08 C 1645 1088.51 1644.91 1103.34 1644.99 1117.8 L 1630.53 1117.81 L 1630.23 995.133 L 1644.31 995.146 L 1644.48 1016.24 C 1656.23 1002.51 1665.18 997.261 1682.78 994.281 z" fill="rgb(26,27,79)" transform="translate(0,0)"></path>
<path d="M 855.946 992.407 L 857.485 993.305 C 858.458 998.007 858.007 1009.44 857.948 1014.8 C 812.183 1018.24 816.489 1044.79 816.874 1080.96 C 817.003 1093.09 816.953 1105.67 816.917 1117.79 L 793.374 1117.85 L 793.359 1103.14 C 793.537 1066.9 793.454 1030.66 793.112 994.426 L 816.085 994.414 L 816.052 1012.73 C 817.079 1011.37 818.137 1010.03 819.225 1008.71 C 829.675 996.02 840.852 993.875 855.946 992.407 z" fill="rgb(26,27,79)" transform="translate(0,0)"></path>
<path d="M 885.755 993.782 L 908.829 993.77 L 908.925 1117.77 L 885.552 1117.74 L 885.755 993.782 z" fill="rgb(26,27,79)" transform="translate(0,0)"></path>
<path d="M 1570.32 994.888 L 1584.36 995.085 L 1584.7 1117.94 L 1570.21 1117.81 L 1570.32 994.888 z" fill="rgb(26,27,79)" transform="translate(0,0)"></path>
<path d="M 894.014 940.469 C 899.553 939.206 905.342 941.03 909.158 945.239 C 912.973 949.448 914.221 955.388 912.422 960.776 C 910.624 966.165 906.058 970.164 900.479 971.237 C 892.055 972.857 883.887 967.426 882.123 959.031 C 880.359 950.636 885.65 942.377 894.014 940.469 z" fill="rgb(26,27,79)" transform="translate(0,0)"></path>
<path d="M 1573.32 944.568 C 1579.19 942.526 1585.63 945.532 1587.84 951.35 C 1590.05 957.168 1587.23 963.687 1581.47 966.06 C 1577.6 967.656 1573.17 967.023 1569.9 964.407 C 1566.64 961.791 1565.05 957.606 1565.76 953.481 C 1566.47 949.355 1569.36 945.941 1573.32 944.568 z" fill="rgb(26,27,79)" transform="translate(0,0)"></path>
<metadata><recraft-signature>{"signed_by": "recraft", "signature_b64": "hjd/2Afp35LEXifveyGweUB+iV54qmMAdJ6SFWtYO9WW9iJKZfMIXpkZEPoTmINt7YqIwu/trtQ/B19btxK7Dw==", "signing_algo": "Ed25519", "generation_timestamp": 1776758963, "identifier": "3c9c8e61-b2b2-4c89-8133-96c7ea007b59"}</recraft-signature></metadata></svg>